%TF.GenerationSoftware,KiCad,Pcbnew,9.0.6*%
%TF.CreationDate,2026-03-28T16:04:49+03:00*%
%TF.ProjectId,third_attempt_macropad,74686972-645f-4617-9474-656d70745f6d,rev?*%
%TF.SameCoordinates,Original*%
%TF.FileFunction,Legend,Bot*%
%TF.FilePolarity,Positive*%
%FSLAX46Y46*%
G04 Gerber Fmt 4.6, Leading zero omitted, Abs format (unit mm)*
G04 Created by KiCad (PCBNEW 9.0.6) date 2026-03-28 16:04:49*
%MOMM*%
%LPD*%
G01*
G04 APERTURE LIST*
%ADD10C,0.150000*%
%ADD11C,0.120000*%
G04 APERTURE END LIST*
D10*
X88299819Y-107370655D02*
X87299819Y-107370655D01*
X87299819Y-107370655D02*
X87299819Y-107608750D01*
X87299819Y-107608750D02*
X87347438Y-107751607D01*
X87347438Y-107751607D02*
X87442676Y-107846845D01*
X87442676Y-107846845D02*
X87537914Y-107894464D01*
X87537914Y-107894464D02*
X87728390Y-107942083D01*
X87728390Y-107942083D02*
X87871247Y-107942083D01*
X87871247Y-107942083D02*
X88061723Y-107894464D01*
X88061723Y-107894464D02*
X88156961Y-107846845D01*
X88156961Y-107846845D02*
X88252200Y-107751607D01*
X88252200Y-107751607D02*
X88299819Y-107608750D01*
X88299819Y-107608750D02*
X88299819Y-107370655D01*
X87299819Y-108799226D02*
X87299819Y-108608750D01*
X87299819Y-108608750D02*
X87347438Y-108513512D01*
X87347438Y-108513512D02*
X87395057Y-108465893D01*
X87395057Y-108465893D02*
X87537914Y-108370655D01*
X87537914Y-108370655D02*
X87728390Y-108323036D01*
X87728390Y-108323036D02*
X88109342Y-108323036D01*
X88109342Y-108323036D02*
X88204580Y-108370655D01*
X88204580Y-108370655D02*
X88252200Y-108418274D01*
X88252200Y-108418274D02*
X88299819Y-108513512D01*
X88299819Y-108513512D02*
X88299819Y-108703988D01*
X88299819Y-108703988D02*
X88252200Y-108799226D01*
X88252200Y-108799226D02*
X88204580Y-108846845D01*
X88204580Y-108846845D02*
X88109342Y-108894464D01*
X88109342Y-108894464D02*
X87871247Y-108894464D01*
X87871247Y-108894464D02*
X87776009Y-108846845D01*
X87776009Y-108846845D02*
X87728390Y-108799226D01*
X87728390Y-108799226D02*
X87680771Y-108703988D01*
X87680771Y-108703988D02*
X87680771Y-108513512D01*
X87680771Y-108513512D02*
X87728390Y-108418274D01*
X87728390Y-108418274D02*
X87776009Y-108370655D01*
X87776009Y-108370655D02*
X87871247Y-108323036D01*
X87979819Y-111656845D02*
X86979819Y-111656845D01*
X87979819Y-112228273D02*
X87408390Y-111799702D01*
X86979819Y-112228273D02*
X87551247Y-111656845D01*
X88299819Y-88320655D02*
X87299819Y-88320655D01*
X87299819Y-88320655D02*
X87299819Y-88558750D01*
X87299819Y-88558750D02*
X87347438Y-88701607D01*
X87347438Y-88701607D02*
X87442676Y-88796845D01*
X87442676Y-88796845D02*
X87537914Y-88844464D01*
X87537914Y-88844464D02*
X87728390Y-88892083D01*
X87728390Y-88892083D02*
X87871247Y-88892083D01*
X87871247Y-88892083D02*
X88061723Y-88844464D01*
X88061723Y-88844464D02*
X88156961Y-88796845D01*
X88156961Y-88796845D02*
X88252200Y-88701607D01*
X88252200Y-88701607D02*
X88299819Y-88558750D01*
X88299819Y-88558750D02*
X88299819Y-88320655D01*
X88299819Y-89844464D02*
X88299819Y-89273036D01*
X88299819Y-89558750D02*
X87299819Y-89558750D01*
X87299819Y-89558750D02*
X87442676Y-89463512D01*
X87442676Y-89463512D02*
X87537914Y-89368274D01*
X87537914Y-89368274D02*
X87585533Y-89273036D01*
X87979819Y-92606845D02*
X86979819Y-92606845D01*
X87979819Y-93178273D02*
X87408390Y-92749702D01*
X86979819Y-93178273D02*
X87551247Y-92606845D01*
X107349819Y-107370655D02*
X106349819Y-107370655D01*
X106349819Y-107370655D02*
X106349819Y-107608750D01*
X106349819Y-107608750D02*
X106397438Y-107751607D01*
X106397438Y-107751607D02*
X106492676Y-107846845D01*
X106492676Y-107846845D02*
X106587914Y-107894464D01*
X106587914Y-107894464D02*
X106778390Y-107942083D01*
X106778390Y-107942083D02*
X106921247Y-107942083D01*
X106921247Y-107942083D02*
X107111723Y-107894464D01*
X107111723Y-107894464D02*
X107206961Y-107846845D01*
X107206961Y-107846845D02*
X107302200Y-107751607D01*
X107302200Y-107751607D02*
X107349819Y-107608750D01*
X107349819Y-107608750D02*
X107349819Y-107370655D01*
X106349819Y-108846845D02*
X106349819Y-108370655D01*
X106349819Y-108370655D02*
X106826009Y-108323036D01*
X106826009Y-108323036D02*
X106778390Y-108370655D01*
X106778390Y-108370655D02*
X106730771Y-108465893D01*
X106730771Y-108465893D02*
X106730771Y-108703988D01*
X106730771Y-108703988D02*
X106778390Y-108799226D01*
X106778390Y-108799226D02*
X106826009Y-108846845D01*
X106826009Y-108846845D02*
X106921247Y-108894464D01*
X106921247Y-108894464D02*
X107159342Y-108894464D01*
X107159342Y-108894464D02*
X107254580Y-108846845D01*
X107254580Y-108846845D02*
X107302200Y-108799226D01*
X107302200Y-108799226D02*
X107349819Y-108703988D01*
X107349819Y-108703988D02*
X107349819Y-108465893D01*
X107349819Y-108465893D02*
X107302200Y-108370655D01*
X107302200Y-108370655D02*
X107254580Y-108323036D01*
X107029819Y-111656845D02*
X106029819Y-111656845D01*
X107029819Y-112228273D02*
X106458390Y-111799702D01*
X106029819Y-112228273D02*
X106601247Y-111656845D01*
X126399819Y-88320655D02*
X125399819Y-88320655D01*
X125399819Y-88320655D02*
X125399819Y-88558750D01*
X125399819Y-88558750D02*
X125447438Y-88701607D01*
X125447438Y-88701607D02*
X125542676Y-88796845D01*
X125542676Y-88796845D02*
X125637914Y-88844464D01*
X125637914Y-88844464D02*
X125828390Y-88892083D01*
X125828390Y-88892083D02*
X125971247Y-88892083D01*
X125971247Y-88892083D02*
X126161723Y-88844464D01*
X126161723Y-88844464D02*
X126256961Y-88796845D01*
X126256961Y-88796845D02*
X126352200Y-88701607D01*
X126352200Y-88701607D02*
X126399819Y-88558750D01*
X126399819Y-88558750D02*
X126399819Y-88320655D01*
X125399819Y-89225417D02*
X125399819Y-89844464D01*
X125399819Y-89844464D02*
X125780771Y-89511131D01*
X125780771Y-89511131D02*
X125780771Y-89653988D01*
X125780771Y-89653988D02*
X125828390Y-89749226D01*
X125828390Y-89749226D02*
X125876009Y-89796845D01*
X125876009Y-89796845D02*
X125971247Y-89844464D01*
X125971247Y-89844464D02*
X126209342Y-89844464D01*
X126209342Y-89844464D02*
X126304580Y-89796845D01*
X126304580Y-89796845D02*
X126352200Y-89749226D01*
X126352200Y-89749226D02*
X126399819Y-89653988D01*
X126399819Y-89653988D02*
X126399819Y-89368274D01*
X126399819Y-89368274D02*
X126352200Y-89273036D01*
X126352200Y-89273036D02*
X126304580Y-89225417D01*
X126079819Y-92606845D02*
X125079819Y-92606845D01*
X126079819Y-93178273D02*
X125508390Y-92749702D01*
X125079819Y-93178273D02*
X125651247Y-92606845D01*
X107349819Y-88320655D02*
X106349819Y-88320655D01*
X106349819Y-88320655D02*
X106349819Y-88558750D01*
X106349819Y-88558750D02*
X106397438Y-88701607D01*
X106397438Y-88701607D02*
X106492676Y-88796845D01*
X106492676Y-88796845D02*
X106587914Y-88844464D01*
X106587914Y-88844464D02*
X106778390Y-88892083D01*
X106778390Y-88892083D02*
X106921247Y-88892083D01*
X106921247Y-88892083D02*
X107111723Y-88844464D01*
X107111723Y-88844464D02*
X107206961Y-88796845D01*
X107206961Y-88796845D02*
X107302200Y-88701607D01*
X107302200Y-88701607D02*
X107349819Y-88558750D01*
X107349819Y-88558750D02*
X107349819Y-88320655D01*
X106445057Y-89273036D02*
X106397438Y-89320655D01*
X106397438Y-89320655D02*
X106349819Y-89415893D01*
X106349819Y-89415893D02*
X106349819Y-89653988D01*
X106349819Y-89653988D02*
X106397438Y-89749226D01*
X106397438Y-89749226D02*
X106445057Y-89796845D01*
X106445057Y-89796845D02*
X106540295Y-89844464D01*
X106540295Y-89844464D02*
X106635533Y-89844464D01*
X106635533Y-89844464D02*
X106778390Y-89796845D01*
X106778390Y-89796845D02*
X107349819Y-89225417D01*
X107349819Y-89225417D02*
X107349819Y-89844464D01*
X107029819Y-92606845D02*
X106029819Y-92606845D01*
X107029819Y-93178273D02*
X106458390Y-92749702D01*
X106029819Y-93178273D02*
X106601247Y-92606845D01*
D11*
%TO.C,D6*%
X85725000Y-105338750D02*
X85725000Y-105988750D01*
X85725000Y-110878750D02*
X85725000Y-110228750D01*
X86845000Y-109388750D02*
X84605000Y-109388750D01*
X86845000Y-109508750D02*
X84605000Y-109508750D01*
X86845000Y-109628750D02*
X84605000Y-109628750D01*
X86845000Y-110228750D02*
X84605000Y-110228750D01*
X84605000Y-105988750D01*
X86845000Y-105988750D01*
X86845000Y-110228750D01*
%TO.C,D1*%
X85725000Y-86288750D02*
X85725000Y-86938750D01*
X85725000Y-91828750D02*
X85725000Y-91178750D01*
X86845000Y-90338750D02*
X84605000Y-90338750D01*
X86845000Y-90458750D02*
X84605000Y-90458750D01*
X86845000Y-90578750D02*
X84605000Y-90578750D01*
X86845000Y-91178750D02*
X84605000Y-91178750D01*
X84605000Y-86938750D01*
X86845000Y-86938750D01*
X86845000Y-91178750D01*
%TO.C,D5*%
X104775000Y-105338750D02*
X104775000Y-105988750D01*
X104775000Y-110878750D02*
X104775000Y-110228750D01*
X105895000Y-109388750D02*
X103655000Y-109388750D01*
X105895000Y-109508750D02*
X103655000Y-109508750D01*
X105895000Y-109628750D02*
X103655000Y-109628750D01*
X105895000Y-110228750D02*
X103655000Y-110228750D01*
X103655000Y-105988750D01*
X105895000Y-105988750D01*
X105895000Y-110228750D01*
%TO.C,D3*%
X123825000Y-86288750D02*
X123825000Y-86938750D01*
X123825000Y-91828750D02*
X123825000Y-91178750D01*
X124945000Y-90338750D02*
X122705000Y-90338750D01*
X124945000Y-90458750D02*
X122705000Y-90458750D01*
X124945000Y-90578750D02*
X122705000Y-90578750D01*
X124945000Y-91178750D02*
X122705000Y-91178750D01*
X122705000Y-86938750D01*
X124945000Y-86938750D01*
X124945000Y-91178750D01*
%TO.C,D2*%
X104775000Y-86288750D02*
X104775000Y-86938750D01*
X104775000Y-91828750D02*
X104775000Y-91178750D01*
X105895000Y-90338750D02*
X103655000Y-90338750D01*
X105895000Y-90458750D02*
X103655000Y-90458750D01*
X105895000Y-90578750D02*
X103655000Y-90578750D01*
X105895000Y-91178750D02*
X103655000Y-91178750D01*
X103655000Y-86938750D01*
X105895000Y-86938750D01*
X105895000Y-91178750D01*
%TO.C,D4*%
X123825000Y-105338750D02*
X123825000Y-105988750D01*
X123825000Y-110878750D02*
X123825000Y-110228750D01*
X124945000Y-109388750D02*
X122705000Y-109388750D01*
X124945000Y-109508750D02*
X122705000Y-109508750D01*
X124945000Y-109628750D02*
X122705000Y-109628750D01*
X124945000Y-110228750D02*
X122705000Y-110228750D01*
X122705000Y-105988750D01*
X124945000Y-105988750D01*
X124945000Y-110228750D01*
%TD*%
M02*
