%TF.GenerationSoftware,KiCad,Pcbnew,9.0.6*%
%TF.CreationDate,2026-03-28T16:04:49+03:00*%
%TF.ProjectId,third_attempt_macropad,74686972-645f-4617-9474-656d70745f6d,rev?*%
%TF.SameCoordinates,Original*%
%TF.FileFunction,Legend,Top*%
%TF.FilePolarity,Positive*%
%FSLAX46Y46*%
G04 Gerber Fmt 4.6, Leading zero omitted, Abs format (unit mm)*
G04 Created by KiCad (PCBNEW 9.0.6) date 2026-03-28 16:04:49*
%MOMM*%
%LPD*%
G01*
G04 APERTURE LIST*
%ADD10C,0.250000*%
%ADD11C,0.101600*%
%ADD12C,0.150000*%
%ADD13C,0.127000*%
%ADD14C,0.120000*%
%ADD15C,0.254000*%
%ADD16C,0.025400*%
G04 APERTURE END LIST*
D10*
X87560663Y-125134619D02*
X88227330Y-125134619D01*
X88513044Y-126182238D02*
X87560663Y-126182238D01*
X87560663Y-126182238D02*
X87560663Y-124182238D01*
X87560663Y-124182238D02*
X88513044Y-124182238D01*
X89751139Y-125229857D02*
X89751139Y-126182238D01*
X89084473Y-124182238D02*
X89751139Y-125229857D01*
X89751139Y-125229857D02*
X90417806Y-124182238D01*
X91084473Y-126182238D02*
X91084473Y-124182238D01*
X91084473Y-124182238D02*
X91751140Y-125610809D01*
X91751140Y-125610809D02*
X92417806Y-124182238D01*
X92417806Y-124182238D02*
X92417806Y-126182238D01*
X93370187Y-125134619D02*
X94036854Y-125134619D01*
X94322568Y-126182238D02*
X93370187Y-126182238D01*
X93370187Y-126182238D02*
X93370187Y-124182238D01*
X93370187Y-124182238D02*
X94322568Y-124182238D01*
X95179711Y-126182238D02*
X95179711Y-124182238D01*
X95179711Y-124182238D02*
X96322568Y-126182238D01*
X96322568Y-126182238D02*
X96322568Y-124182238D01*
X98798759Y-126182238D02*
X98798759Y-124182238D01*
X98798759Y-124182238D02*
X99941616Y-126182238D01*
X99941616Y-126182238D02*
X99941616Y-124182238D01*
X100798759Y-125610809D02*
X101751140Y-125610809D01*
X100608283Y-126182238D02*
X101274949Y-124182238D01*
X101274949Y-124182238D02*
X101941616Y-126182238D01*
X102608283Y-126182238D02*
X102608283Y-124182238D01*
X102608283Y-124182238D02*
X103274950Y-125610809D01*
X103274950Y-125610809D02*
X103941616Y-124182238D01*
X103941616Y-124182238D02*
X103941616Y-126182238D01*
X105846378Y-126182238D02*
X104893997Y-126182238D01*
X104893997Y-126182238D02*
X104893997Y-124182238D01*
X106513045Y-126182238D02*
X106513045Y-124182238D01*
X108989236Y-125420333D02*
X110513046Y-125420333D01*
X112989236Y-126182238D02*
X112989236Y-124182238D01*
X114132093Y-126182238D02*
X113274950Y-125039380D01*
X114132093Y-124182238D02*
X112989236Y-125325095D01*
X114893998Y-125610809D02*
X115846379Y-125610809D01*
X114703522Y-126182238D02*
X115370188Y-124182238D01*
X115370188Y-124182238D02*
X116036855Y-126182238D01*
X117846379Y-125991761D02*
X117751141Y-126087000D01*
X117751141Y-126087000D02*
X117465427Y-126182238D01*
X117465427Y-126182238D02*
X117274951Y-126182238D01*
X117274951Y-126182238D02*
X116989236Y-126087000D01*
X116989236Y-126087000D02*
X116798760Y-125896523D01*
X116798760Y-125896523D02*
X116703522Y-125706047D01*
X116703522Y-125706047D02*
X116608284Y-125325095D01*
X116608284Y-125325095D02*
X116608284Y-125039380D01*
X116608284Y-125039380D02*
X116703522Y-124658428D01*
X116703522Y-124658428D02*
X116798760Y-124467952D01*
X116798760Y-124467952D02*
X116989236Y-124277476D01*
X116989236Y-124277476D02*
X117274951Y-124182238D01*
X117274951Y-124182238D02*
X117465427Y-124182238D01*
X117465427Y-124182238D02*
X117751141Y-124277476D01*
X117751141Y-124277476D02*
X117846379Y-124372714D01*
X118703522Y-126182238D02*
X118703522Y-124182238D01*
X118703522Y-124182238D02*
X119370189Y-125610809D01*
X119370189Y-125610809D02*
X120036855Y-124182238D01*
X120036855Y-124182238D02*
X120036855Y-126182238D01*
X120893998Y-125610809D02*
X121846379Y-125610809D01*
X120703522Y-126182238D02*
X121370188Y-124182238D01*
X121370188Y-124182238D02*
X122036855Y-126182238D01*
X122513046Y-124182238D02*
X123846379Y-124182238D01*
X123846379Y-124182238D02*
X122513046Y-126182238D01*
X122513046Y-126182238D02*
X123846379Y-126182238D01*
X126132094Y-126182238D02*
X126132094Y-124182238D01*
X126132094Y-124182238D02*
X126798761Y-125610809D01*
X126798761Y-125610809D02*
X127465427Y-124182238D01*
X127465427Y-124182238D02*
X127465427Y-126182238D01*
X128322570Y-125610809D02*
X129274951Y-125610809D01*
X128132094Y-126182238D02*
X128798760Y-124182238D01*
X128798760Y-124182238D02*
X129465427Y-126182238D01*
X131274951Y-125991761D02*
X131179713Y-126087000D01*
X131179713Y-126087000D02*
X130893999Y-126182238D01*
X130893999Y-126182238D02*
X130703523Y-126182238D01*
X130703523Y-126182238D02*
X130417808Y-126087000D01*
X130417808Y-126087000D02*
X130227332Y-125896523D01*
X130227332Y-125896523D02*
X130132094Y-125706047D01*
X130132094Y-125706047D02*
X130036856Y-125325095D01*
X130036856Y-125325095D02*
X130036856Y-125039380D01*
X130036856Y-125039380D02*
X130132094Y-124658428D01*
X130132094Y-124658428D02*
X130227332Y-124467952D01*
X130227332Y-124467952D02*
X130417808Y-124277476D01*
X130417808Y-124277476D02*
X130703523Y-124182238D01*
X130703523Y-124182238D02*
X130893999Y-124182238D01*
X130893999Y-124182238D02*
X131179713Y-124277476D01*
X131179713Y-124277476D02*
X131274951Y-124372714D01*
X133274951Y-126182238D02*
X132608284Y-125229857D01*
X132132094Y-126182238D02*
X132132094Y-124182238D01*
X132132094Y-124182238D02*
X132893999Y-124182238D01*
X132893999Y-124182238D02*
X133084475Y-124277476D01*
X133084475Y-124277476D02*
X133179713Y-124372714D01*
X133179713Y-124372714D02*
X133274951Y-124563190D01*
X133274951Y-124563190D02*
X133274951Y-124848904D01*
X133274951Y-124848904D02*
X133179713Y-125039380D01*
X133179713Y-125039380D02*
X133084475Y-125134619D01*
X133084475Y-125134619D02*
X132893999Y-125229857D01*
X132893999Y-125229857D02*
X132132094Y-125229857D01*
X134513046Y-124182238D02*
X134893999Y-124182238D01*
X134893999Y-124182238D02*
X135084475Y-124277476D01*
X135084475Y-124277476D02*
X135274951Y-124467952D01*
X135274951Y-124467952D02*
X135370189Y-124848904D01*
X135370189Y-124848904D02*
X135370189Y-125515571D01*
X135370189Y-125515571D02*
X135274951Y-125896523D01*
X135274951Y-125896523D02*
X135084475Y-126087000D01*
X135084475Y-126087000D02*
X134893999Y-126182238D01*
X134893999Y-126182238D02*
X134513046Y-126182238D01*
X134513046Y-126182238D02*
X134322570Y-126087000D01*
X134322570Y-126087000D02*
X134132094Y-125896523D01*
X134132094Y-125896523D02*
X134036856Y-125515571D01*
X134036856Y-125515571D02*
X134036856Y-124848904D01*
X134036856Y-124848904D02*
X134132094Y-124467952D01*
X134132094Y-124467952D02*
X134322570Y-124277476D01*
X134322570Y-124277476D02*
X134513046Y-124182238D01*
X136227332Y-126182238D02*
X136227332Y-124182238D01*
X136227332Y-124182238D02*
X136989237Y-124182238D01*
X136989237Y-124182238D02*
X137179713Y-124277476D01*
X137179713Y-124277476D02*
X137274951Y-124372714D01*
X137274951Y-124372714D02*
X137370189Y-124563190D01*
X137370189Y-124563190D02*
X137370189Y-124848904D01*
X137370189Y-124848904D02*
X137274951Y-125039380D01*
X137274951Y-125039380D02*
X137179713Y-125134619D01*
X137179713Y-125134619D02*
X136989237Y-125229857D01*
X136989237Y-125229857D02*
X136227332Y-125229857D01*
X138132094Y-125610809D02*
X139084475Y-125610809D01*
X137941618Y-126182238D02*
X138608284Y-124182238D01*
X138608284Y-124182238D02*
X139274951Y-126182238D01*
X139941618Y-126182238D02*
X139941618Y-124182238D01*
X139941618Y-124182238D02*
X140417808Y-124182238D01*
X140417808Y-124182238D02*
X140703523Y-124277476D01*
X140703523Y-124277476D02*
X140893999Y-124467952D01*
X140893999Y-124467952D02*
X140989237Y-124658428D01*
X140989237Y-124658428D02*
X141084475Y-125039380D01*
X141084475Y-125039380D02*
X141084475Y-125325095D01*
X141084475Y-125325095D02*
X140989237Y-125706047D01*
X140989237Y-125706047D02*
X140893999Y-125896523D01*
X140893999Y-125896523D02*
X140703523Y-126087000D01*
X140703523Y-126087000D02*
X140417808Y-126182238D01*
X140417808Y-126182238D02*
X139941618Y-126182238D01*
D11*
X113622666Y-75875735D02*
X113622666Y-76595402D01*
X113622666Y-76595402D02*
X113665000Y-76680068D01*
X113665000Y-76680068D02*
X113707333Y-76722402D01*
X113707333Y-76722402D02*
X113792000Y-76764735D01*
X113792000Y-76764735D02*
X113961333Y-76764735D01*
X113961333Y-76764735D02*
X114046000Y-76722402D01*
X114046000Y-76722402D02*
X114088333Y-76680068D01*
X114088333Y-76680068D02*
X114130666Y-76595402D01*
X114130666Y-76595402D02*
X114130666Y-75875735D01*
X115019666Y-76764735D02*
X114511666Y-76764735D01*
X114765666Y-76764735D02*
X114765666Y-75875735D01*
X114765666Y-75875735D02*
X114680999Y-76002735D01*
X114680999Y-76002735D02*
X114596333Y-76087402D01*
X114596333Y-76087402D02*
X114511666Y-76129735D01*
D12*
X109538095Y-72725950D02*
X109680952Y-72773569D01*
X109680952Y-72773569D02*
X109919047Y-72773569D01*
X109919047Y-72773569D02*
X110014285Y-72725950D01*
X110014285Y-72725950D02*
X110061904Y-72678330D01*
X110061904Y-72678330D02*
X110109523Y-72583092D01*
X110109523Y-72583092D02*
X110109523Y-72487854D01*
X110109523Y-72487854D02*
X110061904Y-72392616D01*
X110061904Y-72392616D02*
X110014285Y-72344997D01*
X110014285Y-72344997D02*
X109919047Y-72297378D01*
X109919047Y-72297378D02*
X109728571Y-72249759D01*
X109728571Y-72249759D02*
X109633333Y-72202140D01*
X109633333Y-72202140D02*
X109585714Y-72154521D01*
X109585714Y-72154521D02*
X109538095Y-72059283D01*
X109538095Y-72059283D02*
X109538095Y-71964045D01*
X109538095Y-71964045D02*
X109585714Y-71868807D01*
X109585714Y-71868807D02*
X109633333Y-71821188D01*
X109633333Y-71821188D02*
X109728571Y-71773569D01*
X109728571Y-71773569D02*
X109966666Y-71773569D01*
X109966666Y-71773569D02*
X110109523Y-71821188D01*
X110919047Y-72725950D02*
X110823809Y-72773569D01*
X110823809Y-72773569D02*
X110633333Y-72773569D01*
X110633333Y-72773569D02*
X110538095Y-72725950D01*
X110538095Y-72725950D02*
X110490476Y-72630711D01*
X110490476Y-72630711D02*
X110490476Y-72249759D01*
X110490476Y-72249759D02*
X110538095Y-72154521D01*
X110538095Y-72154521D02*
X110633333Y-72106902D01*
X110633333Y-72106902D02*
X110823809Y-72106902D01*
X110823809Y-72106902D02*
X110919047Y-72154521D01*
X110919047Y-72154521D02*
X110966666Y-72249759D01*
X110966666Y-72249759D02*
X110966666Y-72344997D01*
X110966666Y-72344997D02*
X110490476Y-72440235D01*
X111776190Y-72725950D02*
X111680952Y-72773569D01*
X111680952Y-72773569D02*
X111490476Y-72773569D01*
X111490476Y-72773569D02*
X111395238Y-72725950D01*
X111395238Y-72725950D02*
X111347619Y-72630711D01*
X111347619Y-72630711D02*
X111347619Y-72249759D01*
X111347619Y-72249759D02*
X111395238Y-72154521D01*
X111395238Y-72154521D02*
X111490476Y-72106902D01*
X111490476Y-72106902D02*
X111680952Y-72106902D01*
X111680952Y-72106902D02*
X111776190Y-72154521D01*
X111776190Y-72154521D02*
X111823809Y-72249759D01*
X111823809Y-72249759D02*
X111823809Y-72344997D01*
X111823809Y-72344997D02*
X111347619Y-72440235D01*
X112633333Y-72725950D02*
X112538095Y-72773569D01*
X112538095Y-72773569D02*
X112347619Y-72773569D01*
X112347619Y-72773569D02*
X112252381Y-72725950D01*
X112252381Y-72725950D02*
X112204762Y-72630711D01*
X112204762Y-72630711D02*
X112204762Y-72249759D01*
X112204762Y-72249759D02*
X112252381Y-72154521D01*
X112252381Y-72154521D02*
X112347619Y-72106902D01*
X112347619Y-72106902D02*
X112538095Y-72106902D01*
X112538095Y-72106902D02*
X112633333Y-72154521D01*
X112633333Y-72154521D02*
X112680952Y-72249759D01*
X112680952Y-72249759D02*
X112680952Y-72344997D01*
X112680952Y-72344997D02*
X112204762Y-72440235D01*
X113538095Y-72773569D02*
X113538095Y-71773569D01*
X113538095Y-72725950D02*
X113442857Y-72773569D01*
X113442857Y-72773569D02*
X113252381Y-72773569D01*
X113252381Y-72773569D02*
X113157143Y-72725950D01*
X113157143Y-72725950D02*
X113109524Y-72678330D01*
X113109524Y-72678330D02*
X113061905Y-72583092D01*
X113061905Y-72583092D02*
X113061905Y-72297378D01*
X113061905Y-72297378D02*
X113109524Y-72202140D01*
X113109524Y-72202140D02*
X113157143Y-72154521D01*
X113157143Y-72154521D02*
X113252381Y-72106902D01*
X113252381Y-72106902D02*
X113442857Y-72106902D01*
X113442857Y-72106902D02*
X113538095Y-72154521D01*
X114728572Y-72725950D02*
X114871429Y-72773569D01*
X114871429Y-72773569D02*
X115109524Y-72773569D01*
X115109524Y-72773569D02*
X115204762Y-72725950D01*
X115204762Y-72725950D02*
X115252381Y-72678330D01*
X115252381Y-72678330D02*
X115300000Y-72583092D01*
X115300000Y-72583092D02*
X115300000Y-72487854D01*
X115300000Y-72487854D02*
X115252381Y-72392616D01*
X115252381Y-72392616D02*
X115204762Y-72344997D01*
X115204762Y-72344997D02*
X115109524Y-72297378D01*
X115109524Y-72297378D02*
X114919048Y-72249759D01*
X114919048Y-72249759D02*
X114823810Y-72202140D01*
X114823810Y-72202140D02*
X114776191Y-72154521D01*
X114776191Y-72154521D02*
X114728572Y-72059283D01*
X114728572Y-72059283D02*
X114728572Y-71964045D01*
X114728572Y-71964045D02*
X114776191Y-71868807D01*
X114776191Y-71868807D02*
X114823810Y-71821188D01*
X114823810Y-71821188D02*
X114919048Y-71773569D01*
X114919048Y-71773569D02*
X115157143Y-71773569D01*
X115157143Y-71773569D02*
X115300000Y-71821188D01*
X115585715Y-72106902D02*
X115966667Y-72106902D01*
X115728572Y-71773569D02*
X115728572Y-72630711D01*
X115728572Y-72630711D02*
X115776191Y-72725950D01*
X115776191Y-72725950D02*
X115871429Y-72773569D01*
X115871429Y-72773569D02*
X115966667Y-72773569D01*
X116728572Y-72106902D02*
X116728572Y-72773569D01*
X116300001Y-72106902D02*
X116300001Y-72630711D01*
X116300001Y-72630711D02*
X116347620Y-72725950D01*
X116347620Y-72725950D02*
X116442858Y-72773569D01*
X116442858Y-72773569D02*
X116585715Y-72773569D01*
X116585715Y-72773569D02*
X116680953Y-72725950D01*
X116680953Y-72725950D02*
X116728572Y-72678330D01*
X117633334Y-72773569D02*
X117633334Y-71773569D01*
X117633334Y-72725950D02*
X117538096Y-72773569D01*
X117538096Y-72773569D02*
X117347620Y-72773569D01*
X117347620Y-72773569D02*
X117252382Y-72725950D01*
X117252382Y-72725950D02*
X117204763Y-72678330D01*
X117204763Y-72678330D02*
X117157144Y-72583092D01*
X117157144Y-72583092D02*
X117157144Y-72297378D01*
X117157144Y-72297378D02*
X117204763Y-72202140D01*
X117204763Y-72202140D02*
X117252382Y-72154521D01*
X117252382Y-72154521D02*
X117347620Y-72106902D01*
X117347620Y-72106902D02*
X117538096Y-72106902D01*
X117538096Y-72106902D02*
X117633334Y-72154521D01*
X118109525Y-72773569D02*
X118109525Y-72106902D01*
X118109525Y-71773569D02*
X118061906Y-71821188D01*
X118061906Y-71821188D02*
X118109525Y-71868807D01*
X118109525Y-71868807D02*
X118157144Y-71821188D01*
X118157144Y-71821188D02*
X118109525Y-71773569D01*
X118109525Y-71773569D02*
X118109525Y-71868807D01*
X118728572Y-72773569D02*
X118633334Y-72725950D01*
X118633334Y-72725950D02*
X118585715Y-72678330D01*
X118585715Y-72678330D02*
X118538096Y-72583092D01*
X118538096Y-72583092D02*
X118538096Y-72297378D01*
X118538096Y-72297378D02*
X118585715Y-72202140D01*
X118585715Y-72202140D02*
X118633334Y-72154521D01*
X118633334Y-72154521D02*
X118728572Y-72106902D01*
X118728572Y-72106902D02*
X118871429Y-72106902D01*
X118871429Y-72106902D02*
X118966667Y-72154521D01*
X118966667Y-72154521D02*
X119014286Y-72202140D01*
X119014286Y-72202140D02*
X119061905Y-72297378D01*
X119061905Y-72297378D02*
X119061905Y-72583092D01*
X119061905Y-72583092D02*
X119014286Y-72678330D01*
X119014286Y-72678330D02*
X118966667Y-72725950D01*
X118966667Y-72725950D02*
X118871429Y-72773569D01*
X118871429Y-72773569D02*
X118728572Y-72773569D01*
X112776191Y-73773569D02*
X113442857Y-74773569D01*
X113442857Y-73773569D02*
X112776191Y-74773569D01*
X113823810Y-74773569D02*
X113823810Y-73773569D01*
X114252381Y-74487854D02*
X114728571Y-74487854D01*
X114157143Y-74773569D02*
X114490476Y-73773569D01*
X114490476Y-73773569D02*
X114823809Y-74773569D01*
X115347619Y-73773569D02*
X115538095Y-73773569D01*
X115538095Y-73773569D02*
X115633333Y-73821188D01*
X115633333Y-73821188D02*
X115728571Y-73916426D01*
X115728571Y-73916426D02*
X115776190Y-74106902D01*
X115776190Y-74106902D02*
X115776190Y-74440235D01*
X115776190Y-74440235D02*
X115728571Y-74630711D01*
X115728571Y-74630711D02*
X115633333Y-74725950D01*
X115633333Y-74725950D02*
X115538095Y-74773569D01*
X115538095Y-74773569D02*
X115347619Y-74773569D01*
X115347619Y-74773569D02*
X115252381Y-74725950D01*
X115252381Y-74725950D02*
X115157143Y-74630711D01*
X115157143Y-74630711D02*
X115109524Y-74440235D01*
X115109524Y-74440235D02*
X115109524Y-74106902D01*
X115109524Y-74106902D02*
X115157143Y-73916426D01*
X115157143Y-73916426D02*
X115252381Y-73821188D01*
X115252381Y-73821188D02*
X115347619Y-73773569D01*
X112966667Y-106833200D02*
X113109524Y-106880819D01*
X113109524Y-106880819D02*
X113347619Y-106880819D01*
X113347619Y-106880819D02*
X113442857Y-106833200D01*
X113442857Y-106833200D02*
X113490476Y-106785580D01*
X113490476Y-106785580D02*
X113538095Y-106690342D01*
X113538095Y-106690342D02*
X113538095Y-106595104D01*
X113538095Y-106595104D02*
X113490476Y-106499866D01*
X113490476Y-106499866D02*
X113442857Y-106452247D01*
X113442857Y-106452247D02*
X113347619Y-106404628D01*
X113347619Y-106404628D02*
X113157143Y-106357009D01*
X113157143Y-106357009D02*
X113061905Y-106309390D01*
X113061905Y-106309390D02*
X113014286Y-106261771D01*
X113014286Y-106261771D02*
X112966667Y-106166533D01*
X112966667Y-106166533D02*
X112966667Y-106071295D01*
X112966667Y-106071295D02*
X113014286Y-105976057D01*
X113014286Y-105976057D02*
X113061905Y-105928438D01*
X113061905Y-105928438D02*
X113157143Y-105880819D01*
X113157143Y-105880819D02*
X113395238Y-105880819D01*
X113395238Y-105880819D02*
X113538095Y-105928438D01*
X113871429Y-105880819D02*
X114109524Y-106880819D01*
X114109524Y-106880819D02*
X114300000Y-106166533D01*
X114300000Y-106166533D02*
X114490476Y-106880819D01*
X114490476Y-106880819D02*
X114728572Y-105880819D01*
X115585714Y-105880819D02*
X115109524Y-105880819D01*
X115109524Y-105880819D02*
X115061905Y-106357009D01*
X115061905Y-106357009D02*
X115109524Y-106309390D01*
X115109524Y-106309390D02*
X115204762Y-106261771D01*
X115204762Y-106261771D02*
X115442857Y-106261771D01*
X115442857Y-106261771D02*
X115538095Y-106309390D01*
X115538095Y-106309390D02*
X115585714Y-106357009D01*
X115585714Y-106357009D02*
X115633333Y-106452247D01*
X115633333Y-106452247D02*
X115633333Y-106690342D01*
X115633333Y-106690342D02*
X115585714Y-106785580D01*
X115585714Y-106785580D02*
X115538095Y-106833200D01*
X115538095Y-106833200D02*
X115442857Y-106880819D01*
X115442857Y-106880819D02*
X115204762Y-106880819D01*
X115204762Y-106880819D02*
X115109524Y-106833200D01*
X115109524Y-106833200D02*
X115061905Y-106785580D01*
X93916667Y-106833200D02*
X94059524Y-106880819D01*
X94059524Y-106880819D02*
X94297619Y-106880819D01*
X94297619Y-106880819D02*
X94392857Y-106833200D01*
X94392857Y-106833200D02*
X94440476Y-106785580D01*
X94440476Y-106785580D02*
X94488095Y-106690342D01*
X94488095Y-106690342D02*
X94488095Y-106595104D01*
X94488095Y-106595104D02*
X94440476Y-106499866D01*
X94440476Y-106499866D02*
X94392857Y-106452247D01*
X94392857Y-106452247D02*
X94297619Y-106404628D01*
X94297619Y-106404628D02*
X94107143Y-106357009D01*
X94107143Y-106357009D02*
X94011905Y-106309390D01*
X94011905Y-106309390D02*
X93964286Y-106261771D01*
X93964286Y-106261771D02*
X93916667Y-106166533D01*
X93916667Y-106166533D02*
X93916667Y-106071295D01*
X93916667Y-106071295D02*
X93964286Y-105976057D01*
X93964286Y-105976057D02*
X94011905Y-105928438D01*
X94011905Y-105928438D02*
X94107143Y-105880819D01*
X94107143Y-105880819D02*
X94345238Y-105880819D01*
X94345238Y-105880819D02*
X94488095Y-105928438D01*
X94821429Y-105880819D02*
X95059524Y-106880819D01*
X95059524Y-106880819D02*
X95250000Y-106166533D01*
X95250000Y-106166533D02*
X95440476Y-106880819D01*
X95440476Y-106880819D02*
X95678572Y-105880819D01*
X96488095Y-105880819D02*
X96297619Y-105880819D01*
X96297619Y-105880819D02*
X96202381Y-105928438D01*
X96202381Y-105928438D02*
X96154762Y-105976057D01*
X96154762Y-105976057D02*
X96059524Y-106118914D01*
X96059524Y-106118914D02*
X96011905Y-106309390D01*
X96011905Y-106309390D02*
X96011905Y-106690342D01*
X96011905Y-106690342D02*
X96059524Y-106785580D01*
X96059524Y-106785580D02*
X96107143Y-106833200D01*
X96107143Y-106833200D02*
X96202381Y-106880819D01*
X96202381Y-106880819D02*
X96392857Y-106880819D01*
X96392857Y-106880819D02*
X96488095Y-106833200D01*
X96488095Y-106833200D02*
X96535714Y-106785580D01*
X96535714Y-106785580D02*
X96583333Y-106690342D01*
X96583333Y-106690342D02*
X96583333Y-106452247D01*
X96583333Y-106452247D02*
X96535714Y-106357009D01*
X96535714Y-106357009D02*
X96488095Y-106309390D01*
X96488095Y-106309390D02*
X96392857Y-106261771D01*
X96392857Y-106261771D02*
X96202381Y-106261771D01*
X96202381Y-106261771D02*
X96107143Y-106309390D01*
X96107143Y-106309390D02*
X96059524Y-106357009D01*
X96059524Y-106357009D02*
X96011905Y-106452247D01*
X93916667Y-87783200D02*
X94059524Y-87830819D01*
X94059524Y-87830819D02*
X94297619Y-87830819D01*
X94297619Y-87830819D02*
X94392857Y-87783200D01*
X94392857Y-87783200D02*
X94440476Y-87735580D01*
X94440476Y-87735580D02*
X94488095Y-87640342D01*
X94488095Y-87640342D02*
X94488095Y-87545104D01*
X94488095Y-87545104D02*
X94440476Y-87449866D01*
X94440476Y-87449866D02*
X94392857Y-87402247D01*
X94392857Y-87402247D02*
X94297619Y-87354628D01*
X94297619Y-87354628D02*
X94107143Y-87307009D01*
X94107143Y-87307009D02*
X94011905Y-87259390D01*
X94011905Y-87259390D02*
X93964286Y-87211771D01*
X93964286Y-87211771D02*
X93916667Y-87116533D01*
X93916667Y-87116533D02*
X93916667Y-87021295D01*
X93916667Y-87021295D02*
X93964286Y-86926057D01*
X93964286Y-86926057D02*
X94011905Y-86878438D01*
X94011905Y-86878438D02*
X94107143Y-86830819D01*
X94107143Y-86830819D02*
X94345238Y-86830819D01*
X94345238Y-86830819D02*
X94488095Y-86878438D01*
X94821429Y-86830819D02*
X95059524Y-87830819D01*
X95059524Y-87830819D02*
X95250000Y-87116533D01*
X95250000Y-87116533D02*
X95440476Y-87830819D01*
X95440476Y-87830819D02*
X95678572Y-86830819D01*
X95964286Y-86830819D02*
X96583333Y-86830819D01*
X96583333Y-86830819D02*
X96250000Y-87211771D01*
X96250000Y-87211771D02*
X96392857Y-87211771D01*
X96392857Y-87211771D02*
X96488095Y-87259390D01*
X96488095Y-87259390D02*
X96535714Y-87307009D01*
X96535714Y-87307009D02*
X96583333Y-87402247D01*
X96583333Y-87402247D02*
X96583333Y-87640342D01*
X96583333Y-87640342D02*
X96535714Y-87735580D01*
X96535714Y-87735580D02*
X96488095Y-87783200D01*
X96488095Y-87783200D02*
X96392857Y-87830819D01*
X96392857Y-87830819D02*
X96107143Y-87830819D01*
X96107143Y-87830819D02*
X96011905Y-87783200D01*
X96011905Y-87783200D02*
X95964286Y-87735580D01*
X132016667Y-106833200D02*
X132159524Y-106880819D01*
X132159524Y-106880819D02*
X132397619Y-106880819D01*
X132397619Y-106880819D02*
X132492857Y-106833200D01*
X132492857Y-106833200D02*
X132540476Y-106785580D01*
X132540476Y-106785580D02*
X132588095Y-106690342D01*
X132588095Y-106690342D02*
X132588095Y-106595104D01*
X132588095Y-106595104D02*
X132540476Y-106499866D01*
X132540476Y-106499866D02*
X132492857Y-106452247D01*
X132492857Y-106452247D02*
X132397619Y-106404628D01*
X132397619Y-106404628D02*
X132207143Y-106357009D01*
X132207143Y-106357009D02*
X132111905Y-106309390D01*
X132111905Y-106309390D02*
X132064286Y-106261771D01*
X132064286Y-106261771D02*
X132016667Y-106166533D01*
X132016667Y-106166533D02*
X132016667Y-106071295D01*
X132016667Y-106071295D02*
X132064286Y-105976057D01*
X132064286Y-105976057D02*
X132111905Y-105928438D01*
X132111905Y-105928438D02*
X132207143Y-105880819D01*
X132207143Y-105880819D02*
X132445238Y-105880819D01*
X132445238Y-105880819D02*
X132588095Y-105928438D01*
X132921429Y-105880819D02*
X133159524Y-106880819D01*
X133159524Y-106880819D02*
X133350000Y-106166533D01*
X133350000Y-106166533D02*
X133540476Y-106880819D01*
X133540476Y-106880819D02*
X133778572Y-105880819D01*
X134588095Y-106214152D02*
X134588095Y-106880819D01*
X134350000Y-105833200D02*
X134111905Y-106547485D01*
X134111905Y-106547485D02*
X134730952Y-106547485D01*
X132016667Y-87783200D02*
X132159524Y-87830819D01*
X132159524Y-87830819D02*
X132397619Y-87830819D01*
X132397619Y-87830819D02*
X132492857Y-87783200D01*
X132492857Y-87783200D02*
X132540476Y-87735580D01*
X132540476Y-87735580D02*
X132588095Y-87640342D01*
X132588095Y-87640342D02*
X132588095Y-87545104D01*
X132588095Y-87545104D02*
X132540476Y-87449866D01*
X132540476Y-87449866D02*
X132492857Y-87402247D01*
X132492857Y-87402247D02*
X132397619Y-87354628D01*
X132397619Y-87354628D02*
X132207143Y-87307009D01*
X132207143Y-87307009D02*
X132111905Y-87259390D01*
X132111905Y-87259390D02*
X132064286Y-87211771D01*
X132064286Y-87211771D02*
X132016667Y-87116533D01*
X132016667Y-87116533D02*
X132016667Y-87021295D01*
X132016667Y-87021295D02*
X132064286Y-86926057D01*
X132064286Y-86926057D02*
X132111905Y-86878438D01*
X132111905Y-86878438D02*
X132207143Y-86830819D01*
X132207143Y-86830819D02*
X132445238Y-86830819D01*
X132445238Y-86830819D02*
X132588095Y-86878438D01*
X132921429Y-86830819D02*
X133159524Y-87830819D01*
X133159524Y-87830819D02*
X133350000Y-87116533D01*
X133350000Y-87116533D02*
X133540476Y-87830819D01*
X133540476Y-87830819D02*
X133778572Y-86830819D01*
X134683333Y-87830819D02*
X134111905Y-87830819D01*
X134397619Y-87830819D02*
X134397619Y-86830819D01*
X134397619Y-86830819D02*
X134302381Y-86973676D01*
X134302381Y-86973676D02*
X134207143Y-87068914D01*
X134207143Y-87068914D02*
X134111905Y-87116533D01*
X112966667Y-87783200D02*
X113109524Y-87830819D01*
X113109524Y-87830819D02*
X113347619Y-87830819D01*
X113347619Y-87830819D02*
X113442857Y-87783200D01*
X113442857Y-87783200D02*
X113490476Y-87735580D01*
X113490476Y-87735580D02*
X113538095Y-87640342D01*
X113538095Y-87640342D02*
X113538095Y-87545104D01*
X113538095Y-87545104D02*
X113490476Y-87449866D01*
X113490476Y-87449866D02*
X113442857Y-87402247D01*
X113442857Y-87402247D02*
X113347619Y-87354628D01*
X113347619Y-87354628D02*
X113157143Y-87307009D01*
X113157143Y-87307009D02*
X113061905Y-87259390D01*
X113061905Y-87259390D02*
X113014286Y-87211771D01*
X113014286Y-87211771D02*
X112966667Y-87116533D01*
X112966667Y-87116533D02*
X112966667Y-87021295D01*
X112966667Y-87021295D02*
X113014286Y-86926057D01*
X113014286Y-86926057D02*
X113061905Y-86878438D01*
X113061905Y-86878438D02*
X113157143Y-86830819D01*
X113157143Y-86830819D02*
X113395238Y-86830819D01*
X113395238Y-86830819D02*
X113538095Y-86878438D01*
X113871429Y-86830819D02*
X114109524Y-87830819D01*
X114109524Y-87830819D02*
X114300000Y-87116533D01*
X114300000Y-87116533D02*
X114490476Y-87830819D01*
X114490476Y-87830819D02*
X114728572Y-86830819D01*
X115061905Y-86926057D02*
X115109524Y-86878438D01*
X115109524Y-86878438D02*
X115204762Y-86830819D01*
X115204762Y-86830819D02*
X115442857Y-86830819D01*
X115442857Y-86830819D02*
X115538095Y-86878438D01*
X115538095Y-86878438D02*
X115585714Y-86926057D01*
X115585714Y-86926057D02*
X115633333Y-87021295D01*
X115633333Y-87021295D02*
X115633333Y-87116533D01*
X115633333Y-87116533D02*
X115585714Y-87259390D01*
X115585714Y-87259390D02*
X115014286Y-87830819D01*
X115014286Y-87830819D02*
X115633333Y-87830819D01*
D13*
%TO.C,U1*%
X105400000Y-65318750D02*
X105400000Y-82318750D01*
X107400000Y-84318750D02*
X121200000Y-84318750D01*
X109800000Y-61894720D02*
X118800000Y-61894720D01*
X109800000Y-69248020D02*
X109800000Y-61894720D01*
X118800000Y-61894720D02*
X118800000Y-69248020D01*
X118800000Y-69248020D02*
X109800000Y-69248020D01*
X121200000Y-63319660D02*
X107400000Y-63319660D01*
X123200000Y-82318750D02*
X123200000Y-65318750D01*
D14*
X105400000Y-65318750D02*
G75*
G02*
X107400000Y-63318750I2044612J-44612D01*
G01*
X107400000Y-84318750D02*
G75*
G02*
X105400000Y-82318750I44857J2044857D01*
G01*
X121200000Y-63318750D02*
G75*
G02*
X123200000Y-65318750I-44610J-2044610D01*
G01*
X123200000Y-82318750D02*
G75*
G02*
X121200000Y-84318750I-2000000J0D01*
G01*
D15*
X103427000Y-65018750D02*
G75*
G02*
X103173000Y-65018750I-127000J0D01*
G01*
X103173000Y-65018750D02*
G75*
G02*
X103427000Y-65018750I127000J0D01*
G01*
D16*
X105412285Y-65257045D02*
X105415333Y-65208277D01*
X105419397Y-65159256D01*
X105412285Y-65257045D01*
X123187713Y-82389600D02*
X123184665Y-82438368D01*
X123180601Y-82487389D01*
X123175268Y-82536157D01*
X123168664Y-82584925D01*
X123161044Y-82633440D01*
X123152153Y-82681700D01*
X123142248Y-82729705D01*
X123189492Y-82340324D01*
X123187713Y-82389600D01*
D14*
%TO.C,SW5*%
X107315000Y-107315000D02*
X121285000Y-107315000D01*
X107315000Y-121285000D02*
X107315000Y-107315000D01*
X121285000Y-107315000D02*
X121285000Y-121285000D01*
X121285000Y-121285000D02*
X107315000Y-121285000D01*
%TO.C,SW6*%
X88265000Y-107315000D02*
X102235000Y-107315000D01*
X88265000Y-121285000D02*
X88265000Y-107315000D01*
X102235000Y-107315000D02*
X102235000Y-121285000D01*
X102235000Y-121285000D02*
X88265000Y-121285000D01*
%TO.C,SW3*%
X88265000Y-88265000D02*
X102235000Y-88265000D01*
X88265000Y-102235000D02*
X88265000Y-88265000D01*
X102235000Y-88265000D02*
X102235000Y-102235000D01*
X102235000Y-102235000D02*
X88265000Y-102235000D01*
%TO.C,SW4*%
X126365000Y-107315000D02*
X140335000Y-107315000D01*
X126365000Y-121285000D02*
X126365000Y-107315000D01*
X140335000Y-107315000D02*
X140335000Y-121285000D01*
X140335000Y-121285000D02*
X126365000Y-121285000D01*
%TO.C,SW1*%
X126365000Y-88265000D02*
X140335000Y-88265000D01*
X126365000Y-102235000D02*
X126365000Y-88265000D01*
X140335000Y-88265000D02*
X140335000Y-102235000D01*
X140335000Y-102235000D02*
X126365000Y-102235000D01*
%TO.C,SW2*%
X107315000Y-88265000D02*
X121285000Y-88265000D01*
X107315000Y-102235000D02*
X107315000Y-88265000D01*
X121285000Y-88265000D02*
X121285000Y-102235000D01*
X121285000Y-102235000D02*
X107315000Y-102235000D01*
%TD*%
M02*
